<svg  version="1.1" xmlns="http://www.w3.org/2000/svg" viewBox="0 0 22 22">
   <line x1="5" y1="1" x2="16" y2="1" stroke="white" stroke-width="0.6" stroke-linecap="round"></line>
   <line x1="5" y1="1" x2="5" y2="3" stroke="white" stroke-width="0.6" stroke-linecap="round"></line>
   <line x1="9" y1="3" x2="5" y2="3" stroke="white" stroke-width="0.6" stroke-linecap="round"></line>
   <line x1="9" y1="3" x2="9" y2="4" stroke="white" stroke-width="0.6" stroke-linecap="round"></line>
   <line x1="5" y1="4" x2="9" y2="4" stroke="white" stroke-width="0.6" stroke-linecap="round"></line>
   <line x1="5" y1="4" x2="5" y2="6" stroke="white" stroke-width="0.6" stroke-linecap="round"></line>
   <line x1="3" y1="6" x2="5" y2="6" stroke="white" stroke-width="0.6" stroke-linecap="round"></line> 
   <line x1="3" y1="6" x2="3" y2="10" stroke="white" stroke-width="0.6" stroke-linecap="round"></line>
   <line x1="2" y1="10" x2="3" y2="10" stroke="white" stroke-width="0.6" stroke-linecap="round"></line>
   <line x1="2" y1="10" x2="2" y2="7" stroke="white" stroke-width="0.6" stroke-linecap="round"></line>
   <line x1="0" y1="7" x2="2" y2="7" stroke="white" stroke-width="0.6" stroke-linecap="round"></line>
   <line x1="0" y1="7" x2="0" y2="16" stroke="white" stroke-width="0.6" stroke-linecap="round"></line>
   <line x1="2" y1="16" x2="0" y2="16" stroke="white" stroke-width="0.6" stroke-linecap="round"></line>
   <line x1="2" y1="16" x2="2" y2="13" stroke="white" stroke-width="0.6" stroke-linecap="round"></line>
   <line x1="3" y1="13" x2="2" y2="13" stroke="white" stroke-width="0.6" stroke-linecap="round"></line>
   <line x1="3" y1="13" x2="3" y2="16" stroke="white" stroke-width="0.6" stroke-linecap="round"></line>
   <line x1="5" y1="16" x2="3" y2="16" stroke="white" stroke-width="0.6" stroke-linecap="round"></line>
   <line x1="5" y1="16" x2="8" y2="19" stroke="white" stroke-width="0.6" stroke-linecap="round"></line>
   <line x1="17" y1="19" x2="8" y2="19" stroke="white" stroke-width="0.6" stroke-linecap="round"></line>
   <line x1="17" y1="19" x2="17" y2="17" stroke="white" stroke-width="0.6" stroke-linecap="round"></line>
   <line x1="18" y1="17" x2="17" y2="17" stroke="white" stroke-width="0.6" stroke-linecap="round"></line>
   <line x1="18" y1="17" x2="18" y2="19" stroke="white" stroke-width="0.6" stroke-linecap="round"></line>
   <line x1="21" y1="17" x2="18" y2="19" stroke="white" stroke-width="0.6" stroke-linecap="round"></line>
   <line x1="21" y1="17" x2="21" y2="8" stroke="white" stroke-width="0.6" stroke-linecap="round"></line>
   <line x1="18" y1="6" x2="21" y2="8" stroke="white" stroke-width="0.6" stroke-linecap="round"></line>
   <line x1="18" y1="6" x2="18" y2="8" stroke="white" stroke-width="0.6" stroke-linecap="round"></line>
   <line x1="17" y1="8" x2="18" y2="8" stroke="white" stroke-width="0.6" stroke-linecap="round"></line>
   <line x1="17" y1="8" x2="17" y2="6" stroke="white" stroke-width="0.6" stroke-linecap="round"></line>
   <line x1="16" y1="6" x2="17" y2="6" stroke="white" stroke-width="0.6" stroke-linecap="round"></line>
   <line x1="16" y1="6" x2="16" y2="4" stroke="white" stroke-width="0.6" stroke-linecap="round"></line>
   <line x1="12" y1="4" x2="16" y2="4" stroke="white" stroke-width="0.6" stroke-linecap="round"></line>
   <line x1="12" y1="4" x2="12" y2="3" stroke="white" stroke-width="0.6" stroke-linecap="round"></line>
   <line x1="16" y1="3" x2="12" y2="3" stroke="white" stroke-width="0.6" stroke-linecap="round"></line>
   <line x1="16" y1="3" x2="16" y2="1" stroke="white" stroke-width="0.6" stroke-linecap="round"></line>
</svg>