<?xml version="1.0" encoding="iso-8859-1"?>
<!-- Uploaded to: SVG Repo, www.svgrepo.com, Generator: SVG Repo Mixer Tools -->
<!DOCTYPE svg PUBLIC "-//W3C//DTD SVG 1.1//EN" "http://www.w3.org/Graphics/SVG/1.1/DTD/svg11.dtd">
<svg version="1.1" id="Capa_1" xmlns="http://www.w3.org/2000/svg" xmlns:xlink="http://www.w3.org/1999/xlink" 
	 width="800px" height="800px" viewBox="0 0 480.799 480.799"
	 xml:space="preserve">
<g>
	<g>
		<path style="fill:#030303;" d="M306.568,145.526l-66.169-93.138l-66.169,93.138c-1.481,2.084-3.608,3.631-6.049,4.392
			L59.156,184.065l68.133,91.715c1.53,2.059,2.336,4.545,2.313,7.113l-1.212,114.239l108.276-36.464
			c2.424-0.812,5.052-0.812,7.476,0l108.268,36.464l-1.206-114.239c-0.034-2.568,0.777-5.055,2.31-7.113l68.131-91.715
			l-109.025-34.147C310.171,149.151,308.055,147.61,306.568,145.526z"/>
		<path style="fill:#030303;" d="M240.399,0C107.633,0,0.003,107.633,0.003,240.396c0,132.772,107.63,240.402,240.396,240.402
			c132.772,0,240.396-107.63,240.396-240.402C480.796,107.633,373.172,0,240.399,0z M374.658,286.587l1.35,126.779
			c0.04,3.785-1.761,7.371-4.826,9.601c-2.029,1.47-4.442,2.236-6.884,2.236c-1.259,0-2.517-0.2-3.74-0.606l-120.158-40.461
			l-120.161,40.461c-3.594,1.213-7.548,0.601-10.621-1.624c-3.068-2.229-4.866-5.81-4.823-9.606l1.347-126.773l-75.609-101.79
			c-2.262-3.044-2.91-6.996-1.738-10.604c1.169-3.605,4.022-6.421,7.639-7.559l120.993-37.899l73.431-103.359
			c2.202-3.09,5.755-4.929,9.549-4.929s7.348,1.833,9.555,4.929l73.419,103.365l120.993,37.893c3.62,1.138,6.462,3.954,7.64,7.559
			c1.178,3.608,0.526,7.56-1.738,10.604L374.658,286.587z"/>
	</g>
</g>
</svg>